# File created by Blade
# Date/Time:  Mon Nov 18 17:26:10 2013
# Frame Rate: 100.000 fps
#------------------------------------------------------
:FULLY-SPECIFIED
:DEGREES
122
root -37.194755 -2.750444 38.059501 12.179578 -7.482455 19.983071
Spine 22.764979 -4.141452 2.365551
Spine1 8.408777 -1.325740 4.535513
Spine2 -22.316903 0.119689 0.223341
NeckDummy -0.030874 0.155572 0.892265 14.017140 -0.922909 0.489263
Neck 3.326622 -13.456094 41.180893
Head -0.316531 -0.049189 0.432372 -6.951079 -3.939672 -1.801923
LeftShoulderDummy -0.077758 0.187807 0.913619 13.993833 -1.082865 0.693716
LeftShoulder 3.734772 -6.164201 13.435638
LeftArm 19.062280 34.079404 24.251607
LeftForeArm 44.953951
LeftForeArmRoll 22.807681
LeftHand -34.036052 -24.956955 14.137836
LeftHandThumb1 13.240509 5.333139
LeftHandIndex1 0.418679 43.423179
LeftHandPinky1 2.752125 64.577926
RightShoulderDummy -0.016978 0.169191 0.856998 13.969290 0.896832 -0.402352
RightShoulder 9.350733 3.283652 9.759326
RightArm 6.089161 70.055915 33.093144
RightForeArm 101.931127
RightForeArmRoll 27.693884
RightHand -46.497027 -25.874491 7.491425
RightHandThumb1 13.099622 4.049142
RightHandIndex1 2.704771 31.998707
RightHandPinky1 4.118608 59.029016
LeftUpLeg -10.380266 24.545549 -50.299096
LeftLeg 46.002159
LeftFoot 0.007981 -0.611190 -1.495693 -21.620646 17.989572 -4.406054
LeftToeBase -0.327150
RightUpLeg -3.251503 17.943098 -34.765295
RightLeg 45.254343
RightFoot -0.467956 0.944786 0.605453 -20.719827 4.835012 -13.335804
RightToeBase -3.767320
123
root -37.219400 -2.739336 38.048714 12.094241 -7.451363 20.041601
Spine 22.821098 -4.260461 2.413780
Spine1 8.426904 -1.363430 4.590636
Spine2 -22.340544 0.103290 0.253620
NeckDummy -0.031932 0.156424 0.893551 14.026946 -0.961028 0.550732
Neck 3.387018 -13.544267 41.295268
Head -0.313238 -0.051440 0.432216 -6.952039 -3.864105 -1.798259
LeftShoulderDummy -0.081062 0.190088 0.915932 14.003068 -1.128954 0.766322
LeftShoulder 3.592818 -6.157354 13.339943
LeftArm 19.438688 33.685644 24.578217
LeftForeArm 44.941920
LeftForeArmRoll 22.444552
LeftHand -34.191854 -25.182633 14.148046
LeftHandThumb1 13.132413 5.544496
LeftHandIndex1 0.733602 43.681202
LeftHandPinky1 3.052485 64.924826
RightShoulderDummy -0.017824 0.168981 0.857313 13.978850 0.935111 -0.462271
RightShoulder 9.190434 3.455861 9.596098
RightArm 6.111082 70.226793 33.434834
RightForeArm 102.113244
RightForeArmRoll 27.185547
RightHand -46.814152 -26.596585 7.724079
RightHandThumb1 13.227573 3.819146
RightHandIndex1 1.711115 32.148556
RightHandPinky1 3.956478 59.232983
LeftUpLeg -10.464161 24.482309 -50.153914
LeftLeg 45.852919
LeftFoot 0.003348 -0.610343 -1.486808 -21.652137 18.073450 -4.327097
LeftToeBase -0.350444
RightUpLeg -3.142148 17.843662 -34.634790
RightLeg 45.881534
RightFoot -0.474206 0.927196 0.554882 -21.302394 4.842426 -13.223697
RightToeBase -3.985918
124
root -37.250358 -2.733415 38.041058 12.040350 -7.403329 20.122155
Spine 22.795645 -4.337936 2.457836
Spine1 8.423195 -1.402605 4.640020
Spine2 -22.312827 0.102520 0.264404
NeckDummy -0.031228 0.156958 0.892575 13.994148 -0.963188 0.554820
Neck 3.507555 -13.536173 41.277086
Head -0.306097 -0.047532 0.433958 -7.006926 -3.809697 -1.751196
LeftShoulderDummy -0.080441 0.190619 0.915185 13.970502 -1.130632 0.766992
LeftShoulder 3.479924 -6.044873 13.199775
LeftArm 19.748542 33.378976 24.852897
LeftForeArm 44.998369
LeftForeArmRoll 22.104102
LeftHand -34.251595 -25.372983 14.075991
LeftHandThumb1 13.150624 5.584596
LeftHandIndex1 0.541849 44.195547
LeftHandPinky1 3.088344 65.538974
RightShoulderDummy -0.016113 0.169168 0.856519 13.946791 0.934633 -0.464275
RightShoulder 9.107906 3.613933 9.470378
RightArm 6.255669 70.384753 33.731411
RightForeArm 102.277485
RightForeArmRoll 26.868841
RightHand -46.855274 -26.840830 7.345808
RightHandThumb1 13.146506 3.770001
RightHandIndex1 1.094640 31.975758
RightHandPinky1 4.232782 60.143848
LeftUpLeg -10.562986 24.408241 -50.051659
LeftLeg 45.714907
LeftFoot 0.002460 -0.611201 -1.478410 -21.717164 18.123747 -4.251475
LeftToeBase -0.354092
RightUpLeg -3.057910 17.732231 -34.489458
RightLeg 46.485365
RightFoot -0.465609 0.953964 0.574307 -20.450279 4.305728 -13.449613
RightToeBase -4.701096
125
root -37.285007 -2.729617 38.045362 11.920038 -7.344073 20.203014
Spine 22.817295 -4.407525 2.497706
Spine1 8.438935 -1.422449 4.710519
Spine2 -22.311420 0.058905 0.248490
NeckDummy -0.033376 0.156450 0.893492 13.973372 -0.959854 0.559390
Neck 3.567393 -13.529270 41.273518
Head -0.299837 -0.045805 0.433315 -7.004752 -3.769405 -1.716248
LeftShoulderDummy -0.084131 0.190152 0.916159 13.950640 -1.131303 0.782806
LeftShoulder 3.317673 -5.929377 13.108268
LeftArm 20.024404 33.135018 25.097293
LeftForeArm 44.997796
LeftForeArmRoll 21.500448
LeftHand -34.221467 -25.264248 14.005886
LeftHandThumb1 12.743451 5.472311
LeftHandIndex1 0.411351 44.203846
LeftHandPinky1 3.222912 66.132355
RightShoulderDummy -0.018257 0.168382 0.857412 13.926629 0.932255 -0.471614
RightShoulder 9.021302 3.743038 9.402299
RightArm 6.308321 70.457069 33.989291
RightForeArm 102.293574
RightForeArmRoll 26.978822
RightHand -46.991808 -27.094384 7.171649
RightHandThumb1 13.042540 4.026291
RightHandIndex1 0.903931 32.193287
RightHandPinky1 4.530393 61.836209
LeftUpLeg -10.667173 24.343383 -49.847063
LeftLeg 45.537330
LeftFoot -0.002705 -0.607423 -1.472644 -21.812059 18.195434 -4.153809
LeftToeBase -0.356584
RightUpLeg -2.907689 17.627797 -34.238496
RightLeg 47.045267
RightFoot -0.470073 0.956693 0.580739 -20.515886 4.250536 -13.745540
RightToeBase -4.560143
126
root -37.325018 -2.727503 38.052049 11.848710 -7.268496 20.312810
Spine 22.776353 -4.476681 2.531208
Spine1 8.434751 -1.451339 4.759553
Spine2 -22.300936 0.081884 0.227695
NeckDummy -0.032211 0.159449 0.892544 13.971865 -0.935752 0.475163
Neck 3.563096 -13.449348 41.251499
Head -0.298450 -0.048605 0.431013 -6.963178 -3.769848 -1.688100
LeftShoulderDummy -0.084958 0.191643 0.915195 13.949836 -1.115118 0.710373
LeftShoulder 3.212443 -5.780699 13.045780
LeftArm 20.238433 32.933926 25.286633
LeftForeArm 45.184862
LeftForeArmRoll 21.206237
LeftHand -34.186662 -25.409039 13.649616
LeftHandThumb1 12.733735 5.644118
LeftHandIndex1 0.774022 44.590977
LeftHandPinky1 3.272509 66.424478
RightShoulderDummy -0.017930 0.173217 0.856768 13.924623 0.910529 -0.388185
RightShoulder 8.983970 3.769440 9.317960
RightArm 6.332852 70.449229 34.094156
RightForeArm 102.271730
RightForeArmRoll 27.562729
RightHand -46.952826 -26.862899 6.771049
RightHandThumb1 12.925144 4.121166
RightHandIndex1 0.691755 32.267677
RightHandPinky1 4.881581 62.832510
LeftUpLeg -10.759798 24.261005 -49.725108
LeftLeg 45.397483
LeftFoot -0.003431 -0.608909 -1.469141 -21.924510 18.223983 -4.075554
LeftToeBase -0.318136
RightUpLeg -2.762770 17.530157 -33.991404
RightLeg 47.522773
RightFoot -0.480342 0.974752 0.642554 -21.053157 3.999555 -14.391714
RightToeBase -3.755671
127
root -37.372647 -2.726742 38.062033 11.781412 -7.166115 20.428778
Spine 22.737317 -4.486471 2.512742
Spine1 8.420689 -1.472846 4.740044
Spine2 -22.294679 0.012505 0.211146
NeckDummy -0.033873 0.161356 0.893461 13.962001 -0.931801 0.565936
Neck 3.716653 -13.552938 41.238711
Head -0.291840 -0.045290 0.430569 -6.994277 -3.703117 -1.650351
LeftShoulderDummy -0.085618 0.194431 0.915877 13.940145 -1.104595 0.773353
LeftShoulder 3.096956 -5.796201 13.019206
LeftArm 20.284564 32.717353 25.334729
LeftForeArm 45.331182
LeftForeArmRoll 20.898614
LeftHand -34.202171 -25.166101 13.534125
LeftHandThumb1 12.595795 5.785000
LeftHandIndex1 0.638760 44.634772
LeftHandPinky1 3.364488 66.526471
RightShoulderDummy -0.019345 0.173116 0.857773 13.915028 0.906061 -0.477067
RightShoulder 8.885840 4.006136 9.279534
RightArm 6.330613 70.508296 34.224014
RightForeArm 102.165741
RightForeArmRoll 28.199346
RightHand -46.811405 -26.383805 6.298493
RightHandThumb1 12.676045 4.237582
RightHandIndex1 0.779457 32.212275
RightHandPinky1 5.229554 63.716735
LeftUpLeg -10.821915 24.174246 -49.567089
LeftLeg 45.186559
LeftFoot -0.000650 -0.605523 -1.465318 -22.045270 18.249740 -3.952577
LeftToeBase -0.310852
RightUpLeg -2.591447 17.446684 -33.728867
RightLeg 47.931640
RightFoot -0.471105 0.952998 0.577510 -20.863838 4.895073 -14.533838
RightToeBase -3.954766
128
root -37.424406 -2.729108 38.077870 11.703968 -7.047384 20.547694
Spine 22.674377 -4.527411 2.540649
Spine1 8.393450 -1.483128 4.769788
Spine2 -22.241147 -0.025689 0.170425
NeckDummy -0.035813 0.164589 0.892580 13.904181 -0.897298 0.431723
Neck 3.692894 -13.411447 41.181561
Head -0.292004 -0.046864 0.430381 -6.970233 -3.694264 -1.658634
LeftShoulderDummy -0.087576 0.195504 0.914359 13.882408 -1.072458 0.654225
LeftShoulder 3.031144 -5.606402 12.967819
LeftArm 20.288635 32.561193 25.336062
LeftForeArm 45.605796
LeftForeArmRoll 20.521111
LeftHand -34.058403 -24.983655 13.271759
LeftHandThumb1 12.649111 5.586842
LeftHandIndex1 0.704148 44.754191
LeftHandPinky1 3.320130 66.389835
RightShoulderDummy -0.021957 0.179268 0.857559 13.856792 0.873043 -0.339625
RightShoulder 8.886538 3.895680 9.281446
RightArm 5.981705 70.343895 34.023420
RightForeArm 102.047151
RightForeArmRoll 29.089326
RightHand -46.647335 -25.842162 5.967995
RightHandThumb1 12.583869 4.491824
RightHandIndex1 0.840235 32.127615
RightHandPinky1 5.434911 63.927140
LeftUpLeg -10.972347 24.059397 -49.415440
LeftLeg 45.034178
LeftFoot -0.008352 -0.607067 -1.456230 -22.199423 18.352785 -3.825643
LeftToeBase -0.341437
RightUpLeg -2.377791 17.373905 -33.422465
RightLeg 48.236181
RightFoot -0.469291 0.947478 0.593080 -20.894298 5.359221 -14.977454
RightToeBase -3.663376
129
root -37.480602 -2.733143 38.100438 11.607046 -6.913112 20.666096
Spine 22.642745 -4.561773 2.539503
Spine1 8.380364 -1.489850 4.753146
Spine2 -22.277151 -0.024669 0.150931
NeckDummy -0.034569 0.168580 0.895821 13.915087 -0.882278 0.461739
Neck 3.783006 -13.484142 41.188145
Head -0.289220 -0.050870 0.427792 -6.923485 -3.659174 -1.661097
LeftShoulderDummy -0.084873 0.199448 0.917213 13.893754 -1.051671 0.660447
LeftShoulder 2.967765 -5.652004 12.978484
LeftArm 20.227896 32.417364 25.304771
LeftForeArm 45.836956
LeftForeArmRoll 20.483575
LeftHand -34.093506 -24.785475 13.176387
LeftHandThumb1 12.717453 5.626086
LeftHandIndex1 0.667227 44.845610
LeftHandPinky1 3.383658 66.765694
RightShoulderDummy -0.020664 0.182516 0.861261 13.868418 0.857309 -0.371984
RightShoulder 8.823424 4.017053 9.318893
RightArm 5.593045 70.202774 33.789787
RightForeArm 101.858090
RightForeArmRoll 29.641472
RightHand -46.536899 -25.107488 5.642056
RightHandThumb1 12.042790 4.792139
RightHandIndex1 1.180159 31.809513
RightHandPinky1 6.131950 64.376523
LeftUpLeg -10.999029 23.979607 -49.245971
LeftLeg 44.874855
LeftFoot -0.000997 -0.611551 -1.454078 -22.315750 18.307620 -3.721418
LeftToeBase -0.325795
RightUpLeg -2.110926 17.333428 -33.061838
RightLeg 48.379648
RightFoot -0.444767 0.967464 0.634832 -20.619453 5.664894 -15.367783
RightToeBase -4.146770
